# xmcd CD database file generated by Grip 3.2.0
# 
# Track frame offsets:
#       150
#       19060
#       35737
#       56650
#       79462
#       98812
#       110900
#       133912
#       149872
#       173780
#       199675
#       230460
# 
# Disc length: 4440 seconds
# 
# Revision: 4
# Processed by: cddbd v1.5.2PL0 Copyright (c) Steve Scherf et al.
# Submitted via: Grip 3.2.0
# 
DISCID=b711560c
DTITLE=My Little Lover - akko　( Disc．1 )
DYEAR=2006
DGENRE=JPop
TTITLE0=チャンス
TTITLE1=recall
TTITLE2=traveling with nature
TTITLE3=予感
TTITLE4=ショータイム
TTITLE5=月とプラモデル
TTITLE6=り・ぼん
TTITLE7=迷い猫
TTITLE8=バケット
TTITLE9=インスピレーション (album ver．)
TTITLE10=いとしい毎日
TTITLE11=date
EXTD=YEAR: 2006
EXTT0=
EXTT1=
EXTT2=
EXTT3=
EXTT4=
EXTT5=
EXTT6=
EXTT7=
EXTT8=
EXTT9=
EXTT10=
EXTT11=
PLAYORDER=
